<svg xmlns="http://www.w3.org/2000/svg" viewBox="0 160 600 250" style="max-width:300px!important">
<g>
	<path fill="none" stroke="white" d="M41.029,261.492c0,0.331,0.307,0.496,0.92,0.496c0.425,0,2.348-0.283,5.771-0.85
		c3.422-0.566,6.526-0.873,9.312-0.921c-3.116,0.85-5.795,1.712-8.037,2.585c-2.243,0.874-4.557,1.841-6.939,2.903
		c-2.384,1.063-4.096,1.771-5.134,2.125c-1.039,0.354-1.936,0.531-2.691,0.531c-2.407,0-3.611-1.558-3.611-4.674
		c0-8.024,2.03-13.666,6.09-16.923c1.652-1.321,4.307-2.891,7.966-4.709c3.658-1.816,7.789-3.541,12.392-5.169
		c4.603-1.629,9.666-3.033,15.188-4.213c5.523-1.179,10.976-1.77,16.357-1.77c5.523,0,10.597,0.803,15.224,2.407
		c4.626,1.605,8.498,3.859,11.613,6.763c3.116,2.903,5.511,6.456,7.188,10.657c1.675,4.202,2.514,8.922,2.514,14.162
		c0,7.978-2.301,15.72-6.904,23.226c-4.603,7.506-10.74,14.126-18.411,19.862c-7.672,5.736-16.322,10.28-25.952,13.631
		c-9.63,3.352-19.118,5.028-28.465,5.028c-1.747,0-3.128-0.189-4.142-0.566c-1.016-0.378-1.735-1.122-2.16-2.23
		c-0.425-1.109-0.637-2.75-0.637-4.921c0-2.691,0.212-4.886,0.637-6.585c0.425-1.699,1.133-3.658,2.125-5.877
		c6.798-15.059,18.623-34.012,35.476-56.86c-3.399,0.378-7.128,1.098-11.188,2.16c-4.061,1.062-7.907,2.23-11.542,3.505
		c-3.635,1.275-6.704,2.503-9.205,3.682C42.279,260.123,41.029,260.973,41.029,261.492z M78.771,249.171
		c0,0.095,0.094,0.626,0.283,1.593c0.188,0.968,0.283,1.805,0.283,2.514c0,1.086-0.556,2.609-1.664,4.567
		c-1.11,1.959-3.292,5.441-6.55,10.445c-3.257,5.004-6.043,9.394-8.355,13.17c-2.313,3.777-5.052,8.639-8.214,14.587
		c-0.991,1.889-1.676,3.163-2.053,3.824c-0.378,0.662-0.98,1.747-1.806,3.257c-0.827,1.511-1.428,2.809-1.806,3.895
		c-0.378,1.086-0.566,1.912-0.566,2.478c0,1.228,0.673,2.089,2.018,2.584c1.345,0.496,3.268,0.744,5.771,0.744
		c6.419,0,13.217-1.168,20.393-3.505c7.175-2.337,13.914-5.582,20.216-9.736c6.302-4.154,11.341-8.852,15.118-14.091
		c3.776-5.24,5.665-10.715,5.665-16.428c0-6.515-2.384-11.53-7.152-15.047c-4.769-3.516-11.708-5.275-20.818-5.275
		C85.71,248.746,82.122,248.888,78.771,249.171z"/>
	<path fill="none" stroke="white" d="M139.667,303.978v1.77c0,2.786,0.684,4.957,2.054,6.515c1.369,1.558,3.162,2.337,5.381,2.337
		c2.313,0,4.709-0.542,7.188-1.629c2.478-1.085,4.944-2.525,7.399-4.319c2.454-1.793,5.452-4.201,8.993-7.223v4.319
		c-5.335,6.42-10.338,11.342-15.012,14.764c-4.673,3.422-9.417,5.133-14.232,5.133c-4.202,0-7.53-1.628-9.984-4.886
		c-2.455-3.257-3.682-7.718-3.682-13.383c0-4.957,1.156-9.453,3.47-13.489c2.313-4.036,6.09-8.296,11.33-12.781
		c3.587-3.068,7.152-5.381,10.692-6.939c3.541-1.558,6.703-2.336,9.488-2.336c2.218,0,3.977,0.508,5.275,1.522
		c1.298,1.016,1.947,2.538,1.947,4.567c0,2.974-1.11,5.937-3.328,8.887c-2.219,2.951-5.606,5.877-10.161,8.78
		C151.928,298.49,146.323,301.287,139.667,303.978z M140.375,299.375c4.249-1.652,7.883-3.706,10.905-6.161
		c3.021-2.454,5.251-4.803,6.692-7.045c1.439-2.242,2.16-3.882,2.16-4.921c0-1.085-0.496-1.628-1.487-1.628
		c-0.85,0-2.23,0.543-4.142,1.628c-1.912,1.086-3.848,2.502-5.807,4.249c-1.959,1.747-3.717,3.8-5.275,6.161
		C141.862,294.018,140.847,296.59,140.375,299.375z"/>
	<path fill="none" stroke="white" d="M178.966,288.753c7.175-6.515,14.138-11.353,20.889-14.516c6.75-3.162,11.967-4.744,15.649-4.744
		c0.991,0,1.912,0.414,2.762,1.239c0.85,0.826,1.522,1.782,2.018,2.868c0.496,1.086,0.743,1.889,0.743,2.408
		c0,0.85-0.331,1.476-0.991,1.876c-0.662,0.401-1.818,0.885-3.47,1.451c0.33,0.756,0.755,1.724,1.275,2.903
		c0.519,1.181,0.92,2.137,1.204,2.868c0.283,0.732,0.425,1.381,0.425,1.947c0,1.133-1.145,3.247-3.434,6.338
		c-2.291,3.092-3.895,5.37-4.815,6.833c-0.92,1.464-1.381,3.257-1.381,5.381c0,3.494,1.604,5.24,4.815,5.24
		c3.304,0,8.473-3.091,15.507-9.276v4.319c-11.944,13.266-20.488,19.898-25.633,19.898c-1.841,0-3.151-0.602-3.93-1.806
		c-0.779-1.204-1.168-2.985-1.168-5.346c0-3.729,1.345-9.135,4.036-16.216c-6.893,7.647-12.015,13.089-15.366,16.322
		c-3.353,3.234-6.114,4.851-8.285,4.851c-1.039,0-2.337-0.896-3.895-2.691c-1.558-1.793-2.939-4.118-4.143-6.975
		c-1.204-2.855-1.806-5.817-1.806-8.887c0-2.218,0.212-4.071,0.637-5.559c0.425-1.487,1.25-3.009,2.479-4.567
		C174.316,293.356,176.276,291.303,178.966,288.753z M212.884,280.964c-12.274,5.618-21.02,10.386-26.235,14.304
		c-5.217,3.918-7.825,7.955-7.825,12.108c0,1.511,0.259,2.75,0.779,3.717c0.519,0.968,1.227,1.452,2.124,1.452
		c0.519,0,1.439-0.33,2.762-0.991c4.957-2.927,9.488-6.738,13.595-11.436C202.192,295.422,207.125,289.037,212.884,280.964z"/>
	<path fill="none" stroke="white" d="M228.817,306.881v-4.603c2.549-3.021,4.484-5.594,5.807-7.718c-1.512-0.519-2.609-1.156-3.293-1.912
		c-0.685-0.754-1.027-1.888-1.027-3.399c0-1.699,0.708-3.847,2.125-6.444c1.416-2.595,3.162-5.027,5.24-7.293
		c2.077-2.266,3.965-3.729,5.665-4.39c0.661-0.33,1.298-0.496,1.912-0.496c0.944,0,1.417,0.449,1.417,1.346
		c0,0.803-0.732,2.432-2.195,4.886c9.724-1.51,15.861-2.266,18.411-2.266c0.991,0,1.675,0.095,2.054,0.283
		c0.802,0.425,1.462,1.417,1.982,2.974c0.519,1.558,0.779,3.116,0.779,4.673c0,0.992-0.437,2.066-1.31,3.222
		c-0.874,1.157-2.372,2.844-4.496,5.063c-2.503,2.691-4.603,5.619-6.302,8.781c-1.699,3.163-2.549,5.547-2.549,7.152
		c0,2.219,1.369,3.328,4.107,3.328c2.879,0,7.883-2.926,15.012-8.78v4.744c-3.918,4.107-7.151,7.341-9.701,9.701
		c-2.549,2.361-4.91,4.237-7.081,5.629c-2.172,1.393-4.107,2.089-5.806,2.089c-1.983,0-3.636-0.908-4.957-2.726
		c-1.322-1.817-1.982-4.449-1.982-7.896c0-2.029,0.519-4.343,1.558-6.939c1.038-2.595,2.56-5.417,4.567-8.461
		c2.006-3.045,4.26-6.078,6.762-9.099c-1.322,0.283-2.809,0.579-4.461,0.885c-1.653,0.307-3.399,0.626-5.24,0.956
		c-1.841,0.331-3.257,0.591-4.249,0.779C238.635,296.802,234.387,302.113,228.817,306.881z"/>
	<path fill="none" stroke="white" d="M366.825,306.456l-18.835,10.621c-4.155,7.034-8.32,13.677-12.498,19.933
		c-4.178,6.254-7.885,11.424-11.117,15.507c-3.234,4.083-6.031,7.198-8.391,9.347c-2.361,2.148-4.107,3.222-5.24,3.222
		c-1.511,0-2.737-0.508-3.682-1.522c-0.944-1.016-1.417-2.208-1.417-3.576c0-5.098,2.868-11.483,8.604-19.154
		c5.735-7.672,14.811-15.826,27.227-24.465c5.382-10.338,9.818-19.731,13.313-28.182c3.492-8.45,6.16-15.672,8.001-21.668
		c1.841-5.995,3.127-10.81,3.859-14.445c0.731-3.634,1.098-5.948,1.098-6.939c0-2.029-0.779-3.045-2.337-3.045
		c-1.274,0-3.151,0.732-5.629,2.195c-2.479,1.464-5.158,3.647-8.037,6.55c-2.88,2.903-5.571,6.267-8.072,10.09
		c-2.503,3.777-4.78,8.014-6.833,12.71c-2.054,4.698-3.636,9.028-4.745,12.994s-1.664,7.152-1.664,9.56
		c0,0.614,0.095,1.959,0.284,4.036c0.425-0.661,0.943-1.463,1.558-2.408c0.612-0.944,1.392-1.912,2.337-2.903
		c0.943-0.992,1.935-1.817,2.974-2.479c0.613-0.471,1.346-0.861,2.195-1.168c0.85-0.307,1.274-0.271,1.274,0.106
		c0,0.283-1.346,2.065-4.036,5.346c-2.691,3.282-5.027,6.244-7.011,8.887c-1.133,1.512-2.644,2.928-4.531,4.249
		c-1.889,1.322-3.424,1.983-4.603,1.983c-1.416,0-2.35-0.661-2.797-1.983c-0.449-1.321-0.673-3.422-0.673-6.302
		c0-6.939,1.191-14.658,3.575-23.155s5.582-15.956,9.595-22.376c3.258-5.098,7.246-9.712,11.968-13.843
		c4.72-4.13,9.312-7.352,13.772-9.666c4.461-2.313,7.966-3.47,10.515-3.47c3.116,0,5.523,0.98,7.223,2.938
		c1.699,1.959,2.549,4.663,2.549,8.108c0,1.699-0.201,3.611-0.602,5.735c-0.401,2.125-0.909,4.273-1.522,6.444
		c-0.614,2.172-1.676,5.665-3.187,10.48c-1.511,4.815-2.502,8.001-2.974,9.559c-1.464,4.863-3.388,9.855-5.771,14.977
		c-2.384,5.123-5.771,11.908-10.161,20.357l14.445-7.789V306.456z"/>
	<path fill="none" stroke="white" d="M400.318,296.613c-6.846,9.063-12.05,15.507-15.613,19.331c-3.565,3.824-6.479,5.735-8.745,5.735
		c-1.795,0-3.446-0.743-4.957-2.23c-1.511-1.487-2.68-3.493-3.505-6.019c-0.826-2.525-1.239-5.228-1.239-8.108
		c0-1.887,0.177-3.587,0.531-5.098c0.354-1.51,1.026-3.174,2.018-4.992c0.992-1.817,2.302-3.788,3.931-5.913
		c1.628-2.125,3.622-4.532,5.983-7.223c1.416-1.652,2.607-3.045,3.575-4.178s1.912-1.899,2.833-2.301
		c0.92-0.4,2.418-0.602,4.496-0.602c1.511,0,2.95,0.202,4.319,0.602c1.369,0.402,2.054,0.814,2.054,1.239
		c0,0.85-0.697,2.384-2.089,4.603c-1.393,2.219-3.636,4.921-6.727,8.108c-3.093,3.186-6.669,6.314-10.729,9.382
		c-0.896,2.786-1.345,4.91-1.345,6.373c0,2.03,0.778,3.045,2.337,3.045c0.566,0,1.51-0.483,2.832-1.452
		c1.321-0.967,3.552-2.833,6.691-5.594c3.139-2.762,5.959-5.205,8.462-7.329c1.841-1.604,3.977-4,6.408-7.187
		c2.431-3.187,4.401-5.582,5.912-7.187c3.493-3.682,5.878-6.078,7.152-7.188c1.274-1.108,2.501-1.664,3.682-1.664
		c1.134,0,1.9,0.354,2.302,1.063c0.4,0.708,0.602,2.148,0.602,4.319c0,0.991-0.095,1.794-0.283,2.407
		c-0.189,0.614-0.578,1.405-1.168,2.372c-0.591,0.968-1.782,2.75-3.576,5.346c-1.795,2.597-3.919,5.665-6.373,9.206
		c-1.322,1.889-2.479,3.954-3.47,6.196c-0.991,2.243-1.486,3.93-1.486,5.063c0,2.455,0.967,3.682,2.902,3.682
		c1.604,0,3.47-0.661,5.595-1.983c2.124-1.321,5.381-3.706,9.771-7.152v4.744c-5.523,5.099-9.606,8.805-12.25,11.117
		c-2.645,2.313-4.934,4.061-6.869,5.24c-1.936,1.18-3.776,1.77-5.522,1.77c-3.966,0-5.948-2.36-5.948-7.081
		c0-1.793,0.59-4.213,1.771-7.258C395.762,306.774,397.674,302.373,400.318,296.613z"/>
	<path fill="none" stroke="white" d="M422.481,303.411v-1.7c12.18-12.84,20.559-21.833,25.138-26.979c1.038-5.806,3.54-8.709,7.506-8.709
		c0.991,0,2.054,0.283,3.187,0.85l0.425,1.346c-0.189,0.566-0.283,1.37-0.283,2.407c0,0.897,0.342,2.562,1.026,4.992
		c0.684,2.432,1.215,4.473,1.594,6.125c0.377,1.653,0.566,3.517,0.566,5.594c0,3.115-0.708,6.102-2.125,8.957
		c-1.416,2.857-3.47,5.594-6.16,8.214c-2.69,2.62-6.16,5.299-10.409,8.037c1.699,0.283,3.045,0.425,4.036,0.425
		c1.936,0,4.024-0.483,6.267-1.452c2.242-0.967,4.532-2.266,6.869-3.895c2.337-1.628,5.063-3.741,8.179-6.337v4.744
		c-6.044,5.902-11.448,10.374-16.216,13.418c-4.769,3.045-8.876,4.567-12.321,4.567c-4.438,0-8.544-1.888-12.32-5.665
		c-2.22-2.266-3.601-4.437-4.143-6.515C422.753,309.761,422.481,306.952,422.481,303.411z M448.894,292.577l-1.274-10.338
		c-2.928,3.305-9.183,9.655-18.765,19.048c2.832,0.614,4.768,1.44,5.807,2.479c1.037,1.039,2.501,3.045,4.39,6.019
		c3.21-1.321,5.676-3.126,7.399-5.417c1.723-2.289,2.585-5.417,2.585-9.382c0-0.472-0.012-0.896-0.035-1.275
		C448.976,293.333,448.94,292.956,448.894,292.577z"/>
	<path fill="none" stroke="white" d="M492.866,264.678h3.045c2.501-4.484,4.768-7.659,6.798-9.524c2.029-1.864,4.343-2.797,6.939-2.797
		c2.595,0,3.895,0.591,3.895,1.771c0,0.566-1.016,2.101-3.045,4.603c-2.03,2.503-3.565,4.603-4.603,6.302
		c1.604,0.189,3.032,0.354,4.283,0.496s2.23,0.26,2.939,0.354c-2.691,5.004-6.066,10.126-10.126,15.366
		c-1.322-0.094-2.433-0.177-3.328-0.248c-0.897-0.071-1.806-0.142-2.727-0.212c-0.92-0.071-2.042-0.152-3.363-0.248
		c-2.549,4.107-4.686,7.778-6.408,11.011c-1.724,3.234-3.045,6.196-3.966,8.887c-0.92,2.691-1.381,5.24-1.381,7.647
		c0,3.257,1.298,4.886,3.895,4.886c1.794,0,4.143-0.956,7.046-2.868c2.903-1.912,6.786-4.851,11.648-8.816v4.744
		c-12.746,13.833-22.164,20.748-28.253,20.748c-2.125,0-3.836-0.827-5.134-2.479c-1.299-1.652-1.947-3.776-1.947-6.373
		c0-1.746,0.365-3.824,1.098-6.231c0.731-2.408,2.041-6.042,3.93-10.905c-0.662,0.566-1.287,1.122-1.877,1.664
		c-0.591,0.543-1.133,1.039-1.628,1.487c-0.496,0.449-1.027,0.921-1.594,1.417s-1.133,1.003-1.699,1.522v-4.886
		c4.957-4.153,10.951-11.447,17.985-21.88c-0.708-0.047-1.369-0.082-1.982-0.106c-0.614-0.023-1.346-0.035-2.195-0.035
		c-2.785,0-4.862,0.189-6.23,0.566c-0.567,0.142-1.098,0.295-1.594,0.46c-0.495,0.166-0.839,0.248-1.026,0.248
		c-0.189,0-0.283-0.142-0.283-0.425c0-1.558,0.967-3.895,2.903-7.01c1.558-2.643,3.032-4.603,4.425-5.877
		c1.393-1.274,3.092-2.135,5.099-2.584C486.41,264.903,489.23,264.678,492.866,264.678z"/>
	<path fill="none" stroke="white" d="M538.114,301.428v5.169c-4.58,5.901-8.852,10.35-12.817,13.348c-3.965,2.998-7.341,4.496-10.125,4.496
		c-3.872,0-6.752-2.029-8.64-6.089c-1.889-4.06-2.832-8.498-2.832-13.313c0-1.841,0.188-3.599,0.566-5.275
		c0.377-1.675,0.825-3.056,1.346-4.142c0.519-1.085,1.487-2.785,2.903-5.099c6.702-10.432,12.84-15.649,18.41-15.649
		c2.879,0,4.319,1.11,4.319,3.328c0,1.511-0.933,3.872-2.797,7.081c-1.865,3.211-3.529,5.5-4.992,6.869
		c-4.106,3.965-6.786,6.727-8.037,8.285s-1.876,3.328-1.876,5.311c0,1.7,0.637,3.116,1.912,4.249c1.274,1.133,2.926,1.7,4.956,1.7
		c2.219,0,4.661-0.814,7.329-2.443C530.406,307.624,533.865,305.017,538.114,301.428z M533.299,269.776
		c-1.181,0-2.302-0.448-3.363-1.345c-1.063-0.896-1.594-2.029-1.594-3.399c0-2.077,0.991-4.39,2.975-6.939
		c1.982-2.549,4.036-3.824,6.16-3.824c1.416,0,2.596,0.437,3.54,1.31c0.944,0.874,1.417,2.136,1.417,3.788
		c0,2.03-0.969,4.273-2.903,6.727C537.594,268.549,535.517,269.776,533.299,269.776z"/>
	<path fill="none" stroke="white" d="M585.202,288.612c-8.309,9.253-12.462,15.696-12.462,19.331c0,2.03,0.825,3.045,2.479,3.045
		c1.368,0,3.15-0.719,5.346-2.16c2.195-1.439,5.629-4.001,10.303-7.683v4.886c-6.703,6.61-11.85,11.377-15.437,14.304
		c-3.588,2.928-6.515,4.39-8.78,4.39c-3.871,0-5.807-2.549-5.807-7.647c0-1.51,0.236-2.997,0.708-4.461
		c0.472-1.462,1.121-2.985,1.947-4.567c0.825-1.581,2.089-3.847,3.789-6.797c1.699-2.95,3.657-6.29,5.877-10.02
		c-2.691,1.37-6.066,4.083-10.126,8.143c-2.645,2.549-4.886,4.969-6.727,7.258c-1.842,2.29-3.813,4.839-5.913,7.647
		c-2.101,2.809-3.636,4.698-4.603,5.665c-0.968,0.968-1.947,1.451-2.938,1.451c-1.512,0-2.903-1.581-4.178-4.744
		c-1.274-3.162-1.912-6.844-1.912-11.046c0-2.596,0.294-4.625,0.885-6.089c0.59-1.463,1.759-3.541,3.506-6.231
		c3.257-5.003,6.064-8.674,8.426-11.011c2.36-2.337,4.626-3.505,6.798-3.505c1.511,0,2.727,0.26,3.646,0.779
		c0.921,0.52,1.381,1.322,1.381,2.407c0,0.473-0.142,0.968-0.425,1.487c-0.283,0.52-0.602,0.991-0.956,1.416
		c-0.354,0.425-1.098,1.251-2.23,2.479c-7.459,8.261-11.188,13.62-11.188,16.074c0,1.37,0.448,2.053,1.346,2.053
		c0.566,0,1.663-0.908,3.292-2.726c1.629-1.817,3.729-4.201,6.303-7.152c2.572-2.95,5.617-6.03,9.134-9.241
		c3.517-3.209,7.518-6.302,12.003-9.276c2.501-1.746,4.578-2.62,6.23-2.62c0.755,0,1.498,1.039,2.23,3.116
		c0.731,2.078,1.098,4.178,1.098,6.302C588.247,284.906,587.231,286.487,585.202,288.612z"/>
</g>
</svg>
